# AST/ASF file generated using VICON BodyLanguage
# -----------------------------------------------
:version 1.10
:name VICON
:units
  mass 1.0
  length 0.45
  angle deg
:documentation
   .ast/.asf automatically generated from VICON data using
   VICON BodyBuilder and BodyLanguage model FoxedUp or BRILLIANT.MOD
:root
   order TX TY TZ RX RY RZ
   axis XYZ
   position 0 0 0  
   orientation 0 -0 0 
:bonedata
  begin
     id 1 
     name lhipjoint
     direction 0.432694 -0.693742 0.575759 
     length 2.19277 
     axis 0 -0 0  XYZ
  end
  begin
     id 2 
     name lfemur
     direction 0.34202 -0.939693 0  
     length 6.69022  
     axis 0 -0 20  XYZ
    dof rx ry rz
    limits (-160.0 20.0)
           (-70.0 70.0)
           (-60.0 70.0)
  end
  begin
     id 3 
     name ltibia
     direction 0.34202 -0.939693 0   
     length 6.50337   
     axis 0 -0 20   XYZ
    dof rx
    limits (-10.0 170.0)
  end
  begin
     id 4 
     name lfoot
     direction 0.158999 -0.435969 0.885805   
     length 2.70564   
     axis -90 -1.13533e-015 20   XYZ
    dof rx rz
    limits (-45.0 90.0)
           (-70.0 20.0)
  end
  begin
     id 5 
     name ltoes
     direction -0.00592919 0.00964381 0.999936   
     length 1.29929   
     axis -90 -1.13533e-015 20   XYZ
    dof rx
    limits (-90.0 20.0)
  end
  begin
     id 6 
     name rhipjoint
     direction -0.414359 -0.700339 0.581234   
     length 2.17212  
     axis 0 -0 0  XYZ 
  end
  begin
     id 7 
     name rfemur
     direction -0.34202 -0.939693 0   
     length 7.17659   
     axis 0 -0 -20   XYZ
    dof rx ry rz
    limits (-160.0 20.0)
           (-70.0 70.0)
           (-70.0 60.0)
  end
  begin
     id 8 
     name rtibia
     direction -0.34202 -0.939693 0   
     length 6.36669   
     axis 0 -0 -20   XYZ
    dof rx
    limits (-10.0 170.0)
 end
 begin
     id 9 
     name rfoot
     direction -0.137064 -0.37658 0.916188   
     length 2.22351  
     axis -90 1.13533e-015 -20   XYZ
    dof rx rz
    limits (-45.0 90.0)
           (-20.0 70.0)
  end
  begin
     id 10 
     name rtoes
     direction -0.000784077 -0.00289101 0.999996   
     length 1.09522   
     axis -90 1.13533e-015 -20   XYZ
    dof rx
    limits (-90.0 20.0)
  end
  begin
     id 11 
     name lowerback
     direction -0.0176242 0.984912 -0.172157   
     length 1.65301   
     axis 0 -0 0   XYZ
    dof rx ry rz
    limits (-20.0 45.0)
           (-30.0 30.0)
           (-30.0 30.0)
  end
  begin
     id 12 
     name upperback
     direction -0.00218128 0.998776 -0.0494072   
     length 1.67776   
     axis 0 -0 0   XYZ
    dof rx ry rz
    limits (-20.0 45.0)
           (-30.0 30.0)
           (-30.0 30.0)
  end
  begin
     id 13 
     name thorax
     direction 0.00544186 0.999658 0.0255711   
     length 1.72293   
     axis 0 -0 0   XYZ
    dof rx ry rz
    limits (-20.0 45.0)
           (-30.0 30.0)
           (-30.0 30.0)
  end
  begin
     id 14 
     name lowerneck
     direction -0.105325 0.983841 0.144785   
     length 2.14226   
     axis 0 -0 0   XYZ
    dof rx ry rz
    limits (-20.0 45.0)
           (-30.0 30.0)
           (-30.0 30.0)
  end
  begin
     id 15 
     name upperneck
     direction 0.0547957 0.988053 -0.144041   
     length 2.17508   
     axis 0 -0 0   XYZ
    dof rx ry rz
    limits (-20.0 45.0)
           (-30.0 30.0)
           (-30.0 30.0)
  end
  begin
     id 16
     name head
     direction 0.0247488 0.997534 -0.0656813  
     length 2.20048  
     axis 0 -0 0   XYZ
    dof rx ry rz
    limits (-20.0 45.0)
           (-30.0 30.0)
           (-30.0 30.0)
  end
  begin
     id 17 
     name lclavicle
     direction 0.820559 0.567247 -0.0701026  
     length 4.09615  
     axis 0 -0 0   XYZ
    dof ry rz
    limits (-20.0 10.0)
           (0.0 20.0)
  end
  begin
     id 18 
     name lhumerus
     direction 0.999977 -0.0067566 -9.96392e-005   
     length 4.59333   
     axis -180 -30 -90   XYZ
    dof rx ry rz
    limits (-60.0 90.0)
           (-90.0 90.0)
           (-90.0 90.0)
  end
  begin
     id 19
     name lradius
     direction 1 -4.48982e-011 -2.53425e-027   
     length 2.81151   
     axis -180 -30 -90   XYZ
    dof rx
    limits (-10.0 170.0)
  end
  begin
     id 20
     name lwrist
     direction 1 -4.48939e-011 -7.39254e-028   
     length 1.40576   
     axis 2.56395e-016 90 90   XYZ
    dof ry
    limits (-180.0 0.0)
 end
  begin
     id 21 
     name lhand
     direction 1 -4.48939e-011 -1.47851e-027   
     length 0.895651   
     axis 9.43423e-016 90 90   XYZ
    dof rx rz
    limits (-90.0 90.0)
           (-45.0 45.0)
  end
  begin
     id 22 
     name lfingers
     direction 1 -4.48978e-011 -2.95702e-027   
     length 0.722097   
     axis 1.88685e-015 90 90   XYZ
    dof rx
    limits (0.0 90.0)
  end
  begin
     id 23
     name lthumb
     direction 0.707107 -6.34931e-011 0.707107   
     length 1.03679   
     axis -90 45 -9.86935e-015   XYZ
    dof rx rz
    limits (-45.0 45.0)
           (-45.0 45.0)
  end
  begin
     id 24 
     name rclavicle
     direction -0.831414 0.553102 -0.0531864   
     length 4.24872  
     axis 0 -0 0   XYZ 
    dof ry rz
    limits (-10.0 20.0)
           (-20.0 0.0)
  end
  begin
     id 25 
     name rhumerus
     direction -0.999916 -0.000939607 0.0129331  
     length 4.74834   
     axis -180 30 90   XYZ
    dof rx ry rz
    limits (-90.0 60.0)
           (-90.0 90.0)
           (-90.0 90.0)
  end
  begin
     id 26 
     name rradius
     direction -1 -4.48956e-011 -1.31752e-027   
     length 2.79907   
     axis -180 30 90   XYZ
    dof rx
    limits (-10.0 170.0)
  end
  begin
     id 27 
     name rwrist
     direction -1 -4.4897e-011 -7.39254e-028   
     length 1.39954   
     axis 2.56395e-016 -90 -90   XYZ
    dof ry
    limits (-180.0 0.0)
  end
  begin
     id 28
     name rhand
     direction -0.999997 -0.00250697 0.000800838   
     length 0.953304   
     axis 9.43423e-016 -90 -90   XYZ
    dof rx rz
    limits (-90.0 90.0)
           (-45.0 45.0)
  end
  begin
     id 29
     name rfingers
     direction -1 -4.48954e-011 -2.95702e-027   
     length 0.763342   
     axis 1.88685e-015 -90 -90   XYZ
    dof rx
    limits (0.0 90.0)
  end
  begin
     id 30
     name rthumb
     direction -0.709701 -0.00217037 0.7045   
     length 1.10115   
     axis -90 -45 9.86935e-015   XYZ
    dof rx rz
    limits (-45.0 45.0)
           (-45.0 45.0)
  end
:hierarchy
  begin
    root lhipjoint rhipjoint lowerback
    lhipjoint lfemur
    lfemur ltibia
    ltibia lfoot
    lfoot ltoes
    rhipjoint rfemur
    rfemur rtibia
    rtibia rfoot
    rfoot rtoes
    lowerback upperback
    upperback thorax
    thorax lowerneck lclavicle rclavicle
    lowerneck upperneck
    upperneck head
    lclavicle lhumerus
    lhumerus lradius
    lradius lwrist
    lwrist lhand lthumb
    lhand lfingers
    rclavicle rhumerus
    rhumerus rradius
    rradius rwrist
    rwrist rhand rthumb
    rhand rfingers
  end

#!OML:ASF G:\ViconDB\ViconDB\414\test\team2\shane.ASF
:FULLY-SPECIFIED
:DEGREES
48
root 3.62101 16.3111 -25.346 -9.22702 -4.0604 -2.1496
lowerback 7.25468 1.08361 0.829699
upperback 7.35201 1.48378 -0.576428
thorax 3.58686 0.793655 -1.11898
lowerneck -18.6121 -6.10285 -9.86571
upperneck 20.7403 -9.53213 15.3502
head 11.0707 -3.42787 5.78674
rclavicle -2.73329e-014 1.31198e-014
rhumerus -31.4577 2.10409 -84.0624
rradius 45.2801
rwrist -140.648
rhand -7.98143 12.2263
rfingers 7.12502
rthumb 17.9267 -16.9675
lclavicle -2.73329e-014 1.31198e-014
lhumerus -29.0808 -15.4599 96.2591
lradius 20.2311
lwrist -7.5928
lhand -39.8017 10.9663
lfingers 7.12502
lthumb -12.7766 40.5554
rfemur -3.98036 -11.5685 9.26448
rtibia 72.5929
rfoot -10.8524 0.948738
rtoes -15.6278
lfemur -4.60941 5.47453 -16.5147
ltibia 41.8158
lfoot -30.1818 -8.61291
ltoes -4.37245
49
root 3.64214 16.2975 -25.2077 -9.5542 -3.97805 -2.3166
lowerback 7.48528 0.733582 0.830529
upperback 7.45654 1.01192 -0.31495
thorax 3.5513 0.549725 -0.833409
lowerneck -18.7345 -5.72192 -9.73239
upperneck 21.184 -8.92779 14.8001
head 11.1236 -3.18836 5.67126
rclavicle 6.5102e-015 -7.55382e-015
rhumerus -31.9955 2.48654 -83.7019
rradius 45.6145
rwrist -140.294
rhand -7.19139 12.3855
rfingers 7.12502
rthumb 18.6867 -16.7369
lclavicle 6.5102e-015 -7.55382e-015
lhumerus -28.3026 -16.193 96.4924
lradius 20.4128
lwrist -7.61293
lhand -39.64 10.6917
lfingers 7.12502
lthumb -12.6208 40.2904
rfemur -5.41376 -11.5837 9.70842
rtibia 72.6164
rfoot -12.085 1.52679
rtoes -16.1377
lfemur -3.53741 5.27911 -16.4282
ltibia 41.5158
lfoot -30.577 -8.34375
ltoes -4.93069
50
root 3.66512 16.2894 -25.0632 -9.84412 -4.04116 -2.39207
lowerback 7.64622 0.384236 0.721269
upperback 7.53415 0.534126 0.00321078
thorax 3.52912 0.295847 -0.424292
lowerneck -18.9441 -5.31936 -9.81074
upperneck 21.7471 -8.22694 14.2328
head 11.2378 -2.92181 5.60621
rclavicle 9.93923e-016 5.96354e-015
rhumerus -32.5889 2.69486 -83.0441
rradius 46.154
rwrist -140.888
rhand -7.1535 11.9707
rfingers 7.12502
rthumb 18.7232 -17.1482
lclavicle 9.93923e-016 5.96354e-015
lhumerus -27.7775 -16.9166 96.8879
lradius 20.8572
lwrist -8.14928
lhand -39.7989 11.0606
lfingers 7.12502
lthumb -12.7739 40.6498
rfemur -6.88225 -11.416 10.1149
rtibia 72.4052
rfoot -13.2475 1.92143
rtoes -16.9323
lfemur -2.5305 5.22456 -16.4715
ltibia 41.1588
lfoot -30.894 -7.96587
ltoes -5.35757
51
root 3.68615 16.2834 -24.9206 -10.1679 -4.15098 -2.4938
lowerback 7.93142 0.127204 0.784682
upperback 7.53736 0.192471 0.173917
thorax 3.3701 0.121503 -0.269243
lowerneck -18.9141 -4.91876 -9.5183
upperneck 22.1751 -7.6425 13.6681
head 11.2624 -2.69052 5.45175
rclavicle -1.4064e-014 1.31198e-014
rhumerus -33.3847 2.66923 -82.6923
rradius 46.6892
rwrist -141.138
rhand -7.04865 12.3027
rfingers 7.12502
rthumb 18.824 -16.8065
lclavicle -1.4064e-014 1.31198e-014
lhumerus -27.4974 -17.8133 97.0769
lradius 21.529
lwrist -8.02779
lhand -39.8245 10.2088
lfingers 7.12502
lthumb -12.7986 39.7965
rfemur -8.26541 -11.1802 10.5615
rtibia 72.0133
rfoot -14.2384 2.54335
rtoes -16.827
lfemur -1.36495 5.10252 -16.4299
ltibia 40.7163
lfoot -31.1957 -7.81166
ltoes -5.06286
52
root 3.70297 16.279 -24.781 -10.3661 -4.10431 -2.57183
lowerback 8.12681 -0.202907 0.462629
upperback 7.55058 -0.270062 0.546368
thorax 3.27449 -0.135817 0.319122
lowerneck -19.1191 -4.51516 -9.38375
upperneck 22.6526 -6.95713 12.9911
head 11.3453 -2.43275 5.29879
rclavicle 2.83268e-015 -3.10104e-014
rhumerus -34.0659 3.00234 -82.1152
rradius 47.3794
rwrist -142.005
rhand -7.06464 12.4502
rfingers 7.12502
rthumb 18.8087 -16.6604
lclavicle 2.83268e-015 -3.10104e-014
lhumerus -27.1313 -17.9929 97.2408
lradius 22.1719
lwrist -9.25476
lhand -40.0463 10.2617
lfingers 7.12502
lthumb -13.0125 39.8359
rfemur -9.67415 -11.088 11.0344
rtibia 71.391
rfoot -15.0465 2.9273
rtoes -17.2247
lfemur -0.320224 4.98175 -16.4152
ltibia 40.1614
lfoot -31.4458 -7.6773
ltoes -5.14156
53
root 3.71797 16.286 -24.6406 -10.4377 -3.98464 -2.62067
lowerback 8.28982 -0.54854 0.294903
upperback 7.4843 -0.742721 0.814444
thorax 3.1223 -0.388059 0.71632
lowerneck -19.3273 -4.16289 -9.40843
upperneck 23.1336 -6.36258 12.5727
head 11.467 -2.20337 5.25875
rclavicle 1.07095e-014 -1.80894e-014
rhumerus -34.7412 2.85855 -81.6109
rradius 47.9746
rwrist -142.342
rhand -7.09381 12.323
rfingers 7.12502
rthumb 18.7806 -16.7904
lclavicle 1.07095e-014 -1.80894e-014
lhumerus -26.7596 -18.2731 97.4497
lradius 22.9656
lwrist -8.93381
lhand -40.3285 9.8996
lfingers 7.12502
lthumb -13.2845 39.4562
rfemur -11.1341 -10.9881 11.4869
rtibia 70.5808
rfoot -15.6707 2.8017
rtoes -17.5388
lfemur 0.660305 4.82586 -16.4648
ltibia 39.449
lfoot -31.6721 -7.63129
ltoes -5.19393
54
root 3.73406 16.2963 -24.4985 -10.6116 -4.03489 -2.74049
lowerback 8.5485 -0.837 0.242482
upperback 7.49109 -1.13339 1.09538
thorax 2.99923 -0.594594 1.06137
lowerneck -19.6141 -3.78947 -9.20754
upperneck 23.4912 -5.74449 12.0029
head 11.5461 -1.96199 5.11895
rclavicle 8.68751e-015 -4.07509e-015
rhumerus -35.3464 2.78192 -81.0679
rradius 48.5083
rwrist -142.639
rhand -7.03211 12.1266
rfingers 7.12502
rthumb 18.8399 -16.981
lclavicle 8.68751e-015 -4.07509e-015
lhumerus -26.5542 -18.9749 97.6871
lradius 24.1611
lwrist -8.26318
lhand -40.9261 10.1312
lfingers 7.12502
lthumb -13.8604 39.6493
rfemur -12.383 -10.8029 12.0457
rtibia 69.5465
rfoot -16.1972 2.58676
rtoes -18.1232
lfemur 1.86435 4.857 -16.3466
ltibia 38.5842
lfoot -31.7335 -7.73855
ltoes -5.54088
55
root 3.749 16.3128 -24.3524 -10.7797 -4.05848 -2.75868
lowerback 8.77151 -1.1307 0.0522554
upperback 7.46418 -1.5385 1.37515
thorax 2.86984 -0.813933 1.4858
lowerneck -19.8024 -3.41937 -9.15512
upperneck 23.802 -5.11461 11.5433
head 11.6006 -1.72152 5.04742
rclavicle -6.39838e-016 -1.32192e-014
rhumerus -36.0121 2.80242 -80.4897
rradius 49.2023
rwrist -143.932
rhand -7.32235 12.1527
rfingers 7.12502
rthumb 18.5608 -16.9818
lclavicle -6.39838e-016 -1.32192e-014
lhumerus -26.3556 -19.1869 97.8322
lradius 25.3063
lwrist -8.06828
lhand -41.259 10.5373
lfingers 7.12502
lthumb -14.1812 40.0332
rfemur -13.5267 -10.5689 12.4797
rtibia 68.3434
rfoot -16.5986 2.23939
rtoes -18.9968
lfemur 3.15676 4.75826 -16.3913
ltibia 37.5267
lfoot -31.7654 -7.73371
ltoes -5.22122
56
root 3.75554 16.3426 -24.2042 -10.7933 -4.09231 -2.89152
lowerback 8.79882 -1.38236 -0.136346
upperback 7.42917 -1.8895 1.66147
thorax 2.84519 -1.00613 1.91017
lowerneck -20.0359 -3.06802 -8.84532
upperneck 24.0837 -4.55717 10.9725
head 11.6576 -1.50395 4.87491
rclavicle -6.03808e-015 2.77305e-014
rhumerus -36.6754 2.73167 -79.9796
rradius 49.8647
rwrist -145.354
rhand -7.59866 11.9634
rfingers 7.12502
rthumb 18.295 -17.1962
lclavicle -6.03808e-015 2.77305e-014
lhumerus -26.0257 -19.213 97.7836
lradius 26.4181
lwrist -7.53864
lhand -41.2702 10.2297
lfingers 7.12502
lthumb -14.192 39.7249
rfemur -14.711 -10.2808 13.127
rtibia 66.9468
rfoot -16.9237 1.5733
rtoes -18.0405
lfemur 4.35994 4.84995 -16.2063
ltibia 36.2848
lfoot -31.6001 -7.8104
ltoes -5.43133
57
root 3.75963 16.3827 -24.0601 -10.6917 -4.07957 -3.1352
lowerback 8.8052 -1.68144 -0.145218
upperback 7.31597 -2.29191 1.98443
thorax 2.7528 -1.21659 2.27594
lowerneck -20.1652 -2.71235 -8.72633
upperneck 24.3197 -3.97259 10.5402
head 11.687 -1.27961 4.79122
rclavicle -1.0958e-014 -6.55989e-015
rhumerus -37.2904 2.58614 -79.5074
rradius 50.3008
rwrist -145.943
rhand -7.72548 11.8554
rfingers 7.12502
rthumb 18.173 -17.3157
lclavicle -1.0958e-014 -6.55989e-015
lhumerus -25.8242 -19.3973 97.793
lradius 27.4426
lwrist -7.46026
lhand -41.5086 9.9126
lfingers 7.12502
lthumb -14.4217 39.3915
rfemur -15.9496 -10.0797 13.9218
rtibia 65.412
rfoot -17.1521 1.07288
rtoes -18.005
lfemur 5.49807 4.81529 -15.9108
ltibia 34.8623
lfoot -31.3245 -8.10112
ltoes -5.57587
58
root 3.76999 16.4206 -23.9006 -10.6523 -4.06282 -3.18352
lowerback 8.63492 -1.94488 -0.200246
upperback 7.21209 -2.65005 2.19323
thorax 2.76638 -1.40398 2.54002
lowerneck -20.1462 -2.37453 -8.4789
upperneck 24.5366 -3.44382 10.0313
head 11.6866 -1.08246 4.64434
rclavicle -7.05189e-014 6.26172e-014
rhumerus -38.0044 2.4194 -79.1154
rradius 50.6686
rwrist -146.27
rhand -7.76471 11.8604
rfingers 7.12502
rthumb 18.1352 -17.3142
lclavicle -7.05189e-014 6.26172e-014
lhumerus -25.7666 -19.7818 97.9526
lradius 28.4908
lwrist -6.84471
lhand -41.8367 10.404
lfingers 7.12502
lthumb -14.7379 39.8601
rfemur -16.892 -9.97008 14.3804
rtibia 63.7005
rfoot -17.3548 0.782207
rtoes -17.9858
lfemur 6.85112 3.99134 -16.2103
ltibia 33.2526
lfoot -30.8257 -7.45163
ltoes -5.54374
59
root 3.77515 16.467 -23.7459 -10.5665 -4.0601 -3.32386
lowerback 8.64343 -2.18081 -0.236176
upperback 7.00196 -2.96568 2.43241
thorax 2.57232 -1.56761 2.83139
lowerneck -20.0371 -2.05488 -8.13946
upperneck 24.7277 -2.96577 9.48673
head 11.6675 -0.906338 4.45761
rclavicle 2.84759e-014 -1.78906e-014
rhumerus -38.854 2.1715 -78.7065
rradius 51.1194
rwrist -147.018
rhand -8.0011 11.9593
rfingers 7.12502
rthumb 17.9078 -17.2362
lclavicle 2.84759e-014 -1.78906e-014
lhumerus -25.8909 -20.1972 98.0066
lradius 29.6678
lwrist -5.97936
lhand -41.8794 10.5757
lfingers 7.12502
lthumb -14.779 40.0288
rfemur -17.8186 -9.55742 14.9571
rtibia 61.9002
rfoot -17.2977 0.976037
rtoes -17.0345
lfemur 8.17621 4.16248 -15.9813
ltibia 31.511
lfoot -30.3433 -7.90095
ltoes -5.50502
60
root 3.78276 16.5173 -23.5877 -10.4548 -4.09281 -3.414
lowerback 8.65357 -2.44105 -0.277159
upperback 6.77088 -3.31378 2.73476
thorax 2.36552 -1.74862 3.19488
lowerneck -20.0248 -1.71055 -8.0492
upperneck 25.0068 -2.37101 8.9632
head 11.6978 -0.697885 4.34481
rclavicle 7.65321e-015 1.43125e-014
rhumerus -40.7517 12.4789 -86.9755
rradius 34.4136
rwrist 30.1728
rhand -29.656 -14.3955
rfingers 7.12502
rthumb -2.98521 -44.3543
lclavicle 7.65321e-015 1.43125e-014
lhumerus -25.8016 -19.7717 98.0438
lradius 30.6023
lwrist -5.99342
lhand -41.604 10.6853
lfingers 7.12502
lthumb -14.5136 40.1576
rfemur -18.6828 -9.14286 15.4782
rtibia 59.983
rfoot -17.1401 1.20572
rtoes -16.9831
lfemur 9.56228 4.18841 -15.8866
ltibia 29.6211
lfoot -29.8013 -8.17525
ltoes -5.85331
61
root 3.78494 16.5657 -23.4373 -10.2282 -3.72549 -3.60548
lowerback 8.71189 -2.78157 -0.306551
upperback 6.4256 -3.76192 3.04977
thorax 2.02435 -1.97623 3.57859
lowerneck -19.9263 -1.40757 -7.91943
upperneck 25.3293 -1.87057 8.49097
head 11.7426 -0.524628 4.23046
rclavicle 4.07509e-015 -4.77083e-015
rhumerus -41.4998 12.1078 -86.6218
rradius 34.7254
rwrist 29.6816
rhand -29.5369 -14.0345
rfingers 7.12502
rthumb -2.87022 -43.9949
lclavicle 4.07509e-015 -4.77083e-015
lhumerus -25.9399 -19.9338 98.2062
lradius 31.5611
lwrist -5.44167
lhand -42.0264 10.9355
lfingers 7.12502
lthumb -14.9206 40.3781
rfemur -19.575 -8.9801 16.0275
rtibia 58.0193
rfoot -16.8213 1.638
rtoes -16.5833
lfemur 10.7799 3.7807 -15.7732
ltibia 27.6273
lfoot -29.0435 -8.38192
ltoes -5.95052
